<svg width="154" height="184" viewBox="0 0 154 184" fill="none" xmlns="http://www.w3.org/2000/svg">
<g clip-path="url(#clip0_1794_38)">
<path d="M1.25998 67.4501V67.5001C1.25998 67.5001 1.08998 69.4401 1.08998 72.8201C1.06998 84.5501 3.19998 113.54 21.85 137.99C47.51 171.64 70.66 180.41 75.9 182.07C76.29 182.16 76.57 182.26 76.75 182.31C76.92 182.25 77.22 182.16 77.59 182.05C78.34 181.8 79.43 181.4 80.86 180.79C83.74 179.59 87.85 177.6 92.92 174.41C103.07 168.03 116.97 156.93 131.91 137.97C151.84 112.76 152.52 72.4501 152.51 67.8701C152.51 67.5801 152.51 67.4201 152.5 67.4201V5.07011C148.79 4.85011 135.52 4.10011 120.82 3.36011C103.48 2.49011 84.16 1.61011 76.38 1.61011C68.6 1.61011 49.52 2.50011 32.46 3.36011C17.97 4.10011 4.92998 4.83011 1.25998 5.07011V67.4501Z" fill="white"/>
<path d="M142.65 91.7599L138.31 82.9199L137.14 87.7199L126.91 91.5799V93.3299H128.31C130.51 93.3299 132.13 93.4399 133.21 93.6599C134.3 93.8799 134.77 94.2199 134.75 94.5999C134.75 94.6699 134.74 94.7799 134.68 94.8799C132.61 97.1899 130.69 100.17 130.41 100.58H124.16L113.43 100.6L102.66 100.58H96.4C96.14 100.17 94.19 97.1899 92.12 94.8499C92.09 94.7599 92.07 94.6799 92.07 94.6099C92.05 94.2099 92.52 93.8899 93.6 93.6699C94.68 93.4599 96.32 93.3399 98.53 93.3399H99.93V91.5899L89.68 87.7299L88.53 82.9299L84.18 91.7699L84.24 91.8299C84.24 91.8299 87.03 94.8099 87.03 100.81C87.03 102.77 86.73 105.07 85.9 107.7C84.93 110.85 82.7 114.68 81.45 118.07C82.52 109.32 84.22 105.46 84.22 100.77C84.22 99.4799 84.09 98.1299 83.81 96.6099C82.97 92.5199 80.13 89.0999 77.89 88.6599L77.75 88.6299V100.19L77.81 100.23C78.89 101.19 79.34 102.75 79.34 104.72C79.34 106.09 79.12 107.64 78.76 109.34C78.33 111.44 77.95 114.17 77.95 116.69C77.95 118.65 78.18 120.49 78.76 121.85C79.95 124.34 84.62 126.91 85.59 127.55C86.46 128.11 86.79 128.72 86.79 129.38C86.82 131.58 82.62 134.38 78.32 135.56L78.14 135.6L84.85 141.93H89.91L89.94 141.87C89.94 141.87 90.35 141.19 90.35 140.57C90.35 140.31 90.29 140.05 90.1 139.87C89.62 139.39 88.86 139.3 88.34 139.3C88.09 139.3 87.86 139.33 87.8 139.34L82.72 135.94C83.9 135.67 89.08 134.59 91.11 134.02C93.09 133.22 95.85 132.16 95.85 129.52C95.85 129.14 95.79 128.77 95.68 128.33C95.33 127.15 94.02 125.62 91.32 125.03L92.08 124.38C94.75 124.4 97.9 126 97.9 128.66C97.9 129.19 97.78 129.76 97.51 130.38C97.35 132.32 93.5 134.46 93.5 134.46L93.36 134.53L100.02 140.37H105.33L105.36 140.32C105.36 140.32 105.75 139.77 105.75 139.2C105.75 139 105.7 138.79 105.53 138.6C104.74 137.8 103.07 137.79 102.84 137.78L97.87 134.56C98.94 134.03 104.72 131.14 104.75 128.05V127.95C104.67 126 103.83 124.48 100.75 122.71C98.75 121.57 95.42 120.84 93.61 120.83C93.49 120.83 93.35 120.84 93.25 120.85C95.6 116.04 95.85 111.59 95.87 110.72L103.3 113.7C105.94 117.6 109.83 119.73 113.27 119.73C116.68 119.72 120.9 117.62 123.62 113.67L131.01 110.73C131.03 111.62 131.25 116.05 133.64 120.84C133.51 120.84 133.37 120.82 133.25 120.82C131.42 120.83 128.11 121.56 126.12 122.7C123.03 124.47 122.2 125.99 122.12 127.94C122.11 127.97 122.11 128.03 122.11 128.04C122.13 131.09 127.75 133.92 128.96 134.49L129.06 134.52L129.1 134.45C129.59 133.83 130.09 133.2 130.57 132.53L130.62 132.45L130.56 132.39C129.92 131.76 129.42 131.05 129.35 130.41C129.06 129.75 128.94 129.18 128.94 128.66C128.93 126 132.09 124.4 134.78 124.38L135.31 124.84L135.41 124.91L135.46 124.8C138.07 120.11 140.18 115.2 141.91 110.32V110.27V110.25C141.53 109.36 141.18 108.51 140.94 107.7C140.13 105.07 139.82 102.79 139.82 100.81C139.82 94.8099 142.64 91.8399 142.64 91.8299L142.68 91.7699L142.65 91.7599Z" fill="#FFCD00"/>
<path d="M89.9204 142.78H84.8604C84.6404 142.78 84.4504 142.69 84.2804 142.55L77.5504 136.22C77.3104 136.01 77.2404 135.67 77.3104 135.37C77.3904 135.06 77.6204 134.83 77.9404 134.75L78.1104 134.7C82.5304 133.51 85.9504 130.86 85.9404 129.39C85.9404 129.21 85.9404 128.79 85.1404 128.27C84.9904 128.18 84.7904 128.06 84.5304 127.89C82.7804 126.8 79.1304 124.57 77.9904 122.21C77.3904 120.81 77.0904 118.97 77.0904 116.67C77.0904 113.61 77.6104 110.65 77.9204 109.15C78.3004 107.37 78.4704 105.92 78.4704 104.7C78.4704 102.87 78.0604 101.6 77.2404 100.85C77.0404 100.68 76.9004 100.42 76.9004 100.17V88.61C76.9004 88.35 77.0204 88.1 77.2204 87.93C77.4204 87.76 77.6904 87.71 77.9504 87.76L78.0604 87.8C80.8404 88.33 83.7904 92.22 84.6604 96.4C84.9504 97.93 85.1004 99.35 85.1004 100.75C85.1004 103.32 84.6304 105.63 84.0104 108.53C83.8004 109.51 83.5704 110.56 83.3404 111.7C84.0604 110.19 84.6804 108.75 85.0904 107.44C85.8204 105.11 86.1904 102.89 86.1904 100.8C86.1904 95.26 83.7204 92.52 83.6104 92.4C83.3604 92.14 83.2504 91.7 83.4204 91.38L87.7604 82.53C87.9204 82.21 88.2604 82.02 88.6304 82.06C89.0004 82.1 89.2904 82.37 89.3804 82.72L90.4204 87.08L100.24 90.78C100.57 90.91 100.81 91.23 100.81 91.59V93.34C100.81 93.84 100.41 94.21 99.9404 94.21H98.5404C96.3904 94.21 94.7804 94.31 93.7804 94.51C93.4804 94.58 93.2904 94.64 93.1304 94.69C94.0204 95.72 95.3004 97.35 96.8704 99.72H129.95C131.54 97.32 132.81 95.72 133.69 94.7C133.55 94.64 133.34 94.58 133.03 94.51C132.06 94.31 130.52 94.21 128.31 94.21C127.9 94.21 127.45 94.21 127.03 94.21H126.91C126.44 94.21 126.04 93.83 126.04 93.34V91.59C126.04 91.23 126.27 90.91 126.6 90.78L136.41 87.08L137.46 82.72C137.54 82.37 137.84 82.1 138.21 82.06C138.57 82.02 138.91 82.21 139.08 82.53L143.42 91.38C143.57 91.68 143.52 92.02 143.34 92.27C143.29 92.34 143.26 92.38 143.24 92.4C142.82 92.91 140.67 95.7 140.67 100.8C140.67 102.89 141.03 105.12 141.74 107.44C141.97 108.13 142.27 108.93 142.68 109.89C142.69 109.92 142.7 109.95 142.72 109.99C142.76 110.13 142.78 110.29 142.74 110.43C142.74 110.47 142.72 110.56 142.7 110.6C140.85 115.88 138.67 120.78 136.2 125.22L136.16 125.29C136.04 125.54 135.84 125.71 135.56 125.76C135.32 125.82 135.05 125.76 134.85 125.59L134.46 125.25C132.4 125.39 129.78 126.57 129.79 128.66C129.79 129.1 129.9 129.54 130.13 130.05C130.16 130.13 130.18 130.23 130.18 130.32C130.23 130.68 130.59 131.22 131.15 131.77L131.2 131.82C131.47 132.1 131.53 132.51 131.35 132.86L131.31 132.94C131.31 132.94 131.26 133.01 131.23 133.05C130.76 133.69 130.28 134.34 129.74 135.01C129.51 135.36 129.09 135.49 128.7 135.35L128.63 135.31C127.35 134.73 121.23 131.72 121.21 128.08C121.21 128.04 121.21 127.96 121.21 127.88C121.35 125.38 122.59 123.71 125.66 121.98C127.48 120.93 130.27 120.21 132.26 120.03C130.85 116.7 130.36 113.67 130.2 112L124.17 114.38C121.47 118.17 117.21 120.59 113.25 120.61C109.42 120.61 105.41 118.25 102.71 114.43L96.6304 112C96.4704 113.68 96.0004 116.7 94.5604 120.03C96.5604 120.21 99.3504 120.93 101.18 121.98C104.23 123.71 105.51 125.44 105.61 127.93V128.07C105.58 130.8 102.27 133.19 99.5704 134.66L103.1 136.95C104.51 137.03 105.53 137.39 106.13 138.03C106.45 138.37 106.6 138.77 106.6 139.22C106.6 139.71 106.42 140.26 106.1 140.78C106.1 140.8 106.07 140.83 106.04 140.86C105.89 141.08 105.6 141.26 105.32 141.26H100.01C99.8004 141.26 99.6104 141.18 99.4404 141.03L92.7804 135.2C92.5604 135.01 92.4704 134.73 92.4904 134.46V134.39C92.1604 134.54 91.8304 134.66 91.5304 134.79L91.4204 134.83C91.4204 134.83 91.3704 134.86 91.3304 134.86C90.2304 135.17 88.0604 135.68 84.8904 136.36L88.0304 138.46C88.1104 138.46 88.2204 138.45 88.3404 138.45C89.3804 138.45 90.1804 138.73 90.7104 139.27C90.9204 139.47 91.2104 139.89 91.2104 140.57C91.2104 141.22 90.9404 141.84 90.7004 142.26C90.5504 142.55 90.2404 142.79 89.9104 142.79L89.9204 142.78Z" fill="#555150"/>
<path fill-rule="evenodd" clip-rule="evenodd" d="M77.7891 4.72998L149.159 7.77998V65.79H77.7891V4.72998Z" fill="#C91517"/>
<path fill-rule="evenodd" clip-rule="evenodd" d="M4.17969 7.77998L75.5497 4.72998V65.79H4.17969V7.77998Z" fill="#1C1B37"/>
<path d="M75.2095 68.28H4.22946V74.31C3.18946 89.3 8.69946 115.6 24.4895 135.74C52.9295 172.03 75.2095 177.59 75.2095 177.59V68.28Z" fill="#FFCD00"/>
<path fill-rule="evenodd" clip-rule="evenodd" d="M66.2495 68.28L75.0895 77.13V87.99L55.4395 68.28H66.2495Z" fill="#C91517"/>
<path fill-rule="evenodd" clip-rule="evenodd" d="M46.1696 68.28L75.0896 97.28V108.13L35.3496 68.28H46.1696Z" fill="#C91517"/>
<path fill-rule="evenodd" clip-rule="evenodd" d="M26.0798 68.28L75.0898 117.41V128.28L15.2598 68.28H26.0798Z" fill="#C91517"/>
<path fill-rule="evenodd" clip-rule="evenodd" d="M6.0007 68.28L75.0907 137.54V148.41L4.2307 77.34L4.2207 76.95V68.28H6.0007Z" fill="#C91517"/>
<path fill-rule="evenodd" clip-rule="evenodd" d="M4.68945 87.6599L75.0894 157.7V168.56L7.51945 101.36C6.19945 96.4399 5.29945 91.8199 4.68945 87.6599Z" fill="#C91517"/>
<path fill-rule="evenodd" clip-rule="evenodd" d="M12.9104 116.18L73.8604 177.17C67.0604 174.84 47.0204 165.89 24.4904 136.19C19.5404 129.66 15.7704 122.84 12.9004 116.19" fill="#C91517"/>
<path d="M29.0997 52.68L23.4797 52.5099L21.8897 57.91L20.2997 52.5099L14.6797 52.68L19.3197 49.49L17.4297 44.2L21.8897 47.63L26.3497 44.2L24.4497 49.49L29.0997 52.68Z" fill="white"/>
<path d="M26.9891 25.2999L20.0691 25.1099L18.1291 31.7399L16.1891 25.1099L9.28906 25.2999L14.9891 21.4099L12.6791 14.9299L18.1291 19.1199L23.5891 14.9299L21.2891 21.4099L26.9891 25.2999Z" fill="white"/>
<path d="M54.61 20.72L49.02 20.55L47.41 25.92L45.84 20.55L40.25 20.72L44.87 17.54L42.99 12.28L47.41 15.67L51.84 12.28L49.99 17.54L54.61 20.72Z" fill="white"/>
<path d="M49.6693 45.6001L45.5893 42.4601L41.5293 45.6001L43.2493 40.7601L39.0293 37.8501L44.1393 37.9901L45.5893 33.0901L47.0493 37.9901L52.1693 37.8501L47.9493 40.7601L49.6693 45.6001Z" fill="white"/>
<path d="M70.2698 55.25L64.4398 55.09L62.7998 60.67L61.1598 55.09L55.3398 55.25L60.1198 51.95L58.1898 46.46L62.7898 50.03L67.4098 46.46L65.4498 51.95L70.2698 55.25Z" fill="white"/>
<path fill-rule="evenodd" clip-rule="evenodd" d="M94.1993 23.2401V38.9401C94.1993 40.9901 94.2393 42.0801 94.3193 42.2401C94.4093 42.3801 94.4893 42.4601 94.5793 42.4601L94.8893 42.4301C94.8893 42.4301 94.9893 42.4601 95.0293 42.5601C95.0793 42.6501 95.1293 42.7201 95.1293 42.8001C95.1293 42.9101 95.0693 42.9901 94.9293 43.0301C94.8893 43.0501 94.7093 43.1101 94.3793 43.1901L88.9693 44.6501C88.7393 44.7001 88.5793 44.7301 88.4693 44.7301C88.2293 44.7301 88.0793 44.6501 88.0193 44.5001C87.9793 44.4301 87.9693 44.2501 87.9693 44.0001V27.4101C87.9693 26.1201 87.9093 25.3901 87.8193 25.1901C87.6693 24.8101 87.3193 24.6201 86.7893 24.6201C86.6293 24.6201 86.3093 24.6801 85.8293 24.7701C85.7393 24.7701 85.6693 24.7801 85.6093 24.7801C85.3793 24.7801 85.2793 24.6701 85.2793 24.4201C85.2793 24.2901 85.4193 24.2001 85.7193 24.1501L92.8793 22.4801C93.3193 22.3801 93.5893 22.3401 93.6993 22.3401C93.9093 22.3401 94.0293 22.3801 94.1093 22.5101C94.1693 22.6301 94.2193 22.8701 94.2193 23.2501" fill="#FFCD00"/>
<path fill-rule="evenodd" clip-rule="evenodd" d="M131.019 24.4099C130.039 25.0599 129.529 25.9499 129.529 27.0899C129.529 28.0899 129.979 28.9599 130.859 29.6999C131.479 30.2199 132.739 30.8699 134.619 31.6299C137.009 32.5899 138.679 33.4699 139.629 34.2199C140.779 35.1299 141.349 36.2999 141.349 37.7099C141.349 39.7299 140.279 41.3499 138.079 42.5899C135.749 43.8999 132.929 44.5599 129.629 44.5599C127.029 44.5599 125.039 44.1899 123.709 43.4499C122.939 43.0099 122.539 42.5599 122.539 42.1399C122.539 41.8899 122.769 41.6699 123.159 41.4899L127.019 39.8499C127.229 39.7299 127.379 39.6899 127.489 39.6899C127.599 39.6899 127.699 39.7299 127.809 39.8099C127.899 39.9099 127.929 39.9999 127.929 40.1099C127.929 40.1499 127.899 40.2199 127.829 40.2999C127.749 40.3899 127.719 40.4699 127.719 40.5499C127.719 40.7899 128.069 41.1099 128.759 41.4599C129.409 41.7699 130.149 42.0599 130.959 42.2599C131.769 42.4899 132.509 42.5899 133.099 42.5899H133.689C134.719 41.7199 135.229 40.6799 135.229 39.4699C135.229 38.3699 134.659 37.3999 133.539 36.6099C132.949 36.1999 131.549 35.5399 129.349 34.6299C126.969 33.6799 125.349 32.6999 124.469 31.7299C123.699 30.8699 123.299 29.8799 123.299 28.7999C123.299 26.5499 124.609 24.9099 127.219 23.8599C129.629 22.8999 132.249 22.4199 135.139 22.4199C136.779 22.4199 138.249 22.5899 139.569 22.9299C140.969 23.2799 141.669 23.7499 141.669 24.3299C141.669 24.5299 141.529 24.6999 141.229 24.8499L137.179 26.5999C136.989 26.6699 136.859 26.7199 136.739 26.7199C136.639 26.7199 136.559 26.6699 136.439 26.5899C136.359 26.4799 136.309 26.3999 136.309 26.2899C136.309 26.2499 136.349 26.1699 136.379 26.0799C136.429 25.9999 136.439 25.9599 136.439 25.9099C136.439 25.6499 135.959 25.3299 134.939 24.9599C133.959 24.5799 132.929 24.3899 131.849 24.3899H131.029" fill="#FFCD00"/>
<path d="M105.739 34.33V38.95C105.739 40.98 105.779 42.06 105.869 42.24C105.939 42.38 106.049 42.46 106.139 42.46L106.439 42.43C106.439 42.43 106.519 42.46 106.559 42.56C106.619 42.65 106.649 42.72 106.649 42.8C106.649 42.91 106.569 42.99 106.449 43.03L105.919 43.19L100.469 44.65C100.289 44.7 100.109 44.73 99.9691 44.73C99.7191 44.73 99.5691 44.65 99.5191 44.5C99.4991 44.43 99.4791 44.25 99.4791 44V28.25C99.4791 26.42 99.4191 25.38 99.3191 25.19C99.1491 24.81 98.8191 24.62 98.3091 24.62C98.1391 24.62 97.7991 24.68 97.3191 24.77C97.2391 24.77 97.1691 24.78 97.1191 24.78C96.8891 24.78 96.7891 24.67 96.7891 24.42C96.7891 24.31 96.9291 24.2 97.2291 24.15L104.379 22.48C104.809 22.38 105.089 22.34 105.199 22.34C105.389 22.34 105.539 22.38 105.589 22.52C105.699 22.66 105.729 23.16 105.729 24V32.09H108.259V19.07H104.899V16.86H108.259V12.99H110.669V16.86H114.039V19.07H110.669V32.09H113.559V28.26C113.559 26.43 113.499 25.39 113.409 25.2C113.239 24.82 112.889 24.63 112.379 24.63C112.199 24.63 111.889 24.69 111.429 24.78C111.329 24.78 111.269 24.79 111.189 24.79C110.989 24.79 110.889 24.68 110.889 24.43C110.889 24.32 111.029 24.21 111.299 24.16L118.479 22.49C118.919 22.39 119.179 22.35 119.309 22.35C119.489 22.35 119.619 22.39 119.709 22.53C119.769 22.64 119.799 23.14 119.799 24.01V38.97C119.799 41.01 119.839 42.1 119.939 42.26C120.019 42.4 120.109 42.48 120.179 42.48L120.479 42.45C120.479 42.45 120.589 42.48 120.649 42.58C120.689 42.67 120.729 42.74 120.729 42.82C120.729 42.93 120.679 43.01 120.539 43.05L119.969 43.21L114.559 44.67C114.359 44.72 114.189 44.75 114.069 44.75C113.819 44.75 113.669 44.67 113.619 44.52C113.579 44.45 113.569 44.27 113.569 44.02V34.36H105.739V34.33Z" fill="#FFCD00"/>
<path d="M113.129 68.0901L111.699 94.5301H114.429L113.129 68.0901Z" fill="#FFCD00"/>
</g>
<defs>
<clipPath id="clip0_1794_38">
<rect width="153.42" height="183.14" fill="white"/>
</clipPath>
</defs>
</svg>
