<svg width="154" height="184" viewBox="0 0 154 184" fill="none" xmlns="http://www.w3.org/2000/svg">
<g clip-path="url(#clip0_1794_38)">
<path d="M1.25998 67.4501V67.5001C1.25998 67.5001 1.08998 69.4401 1.08998 72.8201C1.06998 84.5501 3.19998 113.54 21.85 137.99C47.51 171.64 70.66 180.41 75.9 182.07C76.29 182.16 76.57 182.26 76.75 182.31C76.92 182.25 77.22 182.16 77.59 182.05C78.34 181.8 79.43 181.4 80.86 180.79C83.74 179.59 87.85 177.6 92.92 174.41C103.07 168.03 116.97 156.93 131.91 137.97C151.84 112.76 152.52 72.4501 152.51 67.8701C152.51 67.5801 152.51 67.4201 152.5 67.4201V5.07011C148.79 4.85011 135.52 4.10011 120.82 3.36011C103.48 2.49011 84.16 1.61011 76.38 1.61011C68.6 1.61011 49.52 2.50011 32.46 3.36011C17.97 4.10011 4.92998 4.83011 1.25998 5.07011V67.4501Z" fill="white"/>
<path d="M142.65 91.7599L138.31 82.9199L137.14 87.7199L126.91 91.5799V93.3299H128.31C130.51 93.3299 132.13 93.4399 133.21 93.6599C134.3 93.8799 134.77 94.2199 134.75 94.5999C134.75 94.6699 134.74 94.7799 134.68 94.8799C132.61 97.1899 130.69 100.17 130.41 100.58H124.16L113.43 100.6L102.66 100.58H96.4C96.14 100.17 94.19 97.1899 92.12 94.8499C92.09 94.7599 92.07 94.6799 92.07 94.6099C92.05 94.2099 92.52 93.8899 93.6 93.6699C94.68 93.4599 96.32 93.3399 98.53 93.3399H99.93V91.5899L89.68 87.7299L88.53 82.9299L84.18 91.7699L84.24 91.8299C84.24 91.8299 87.03 94.8099 87.03 100.81C87.03 102.77 86.73 105.07 85.9 107.7C84.93 110.85 82.7 114.68 81.45 118.07C82.52 109.32 84.22 105.46 84.22 100.77C84.22 99.4799 84.09 98.1299 83.81 96.6099C82.97 92.5199 80.13 89.0999 77.89 88.6599L77.75 88.6299V100.19L77.81 100.23C78.89 101.19 79.34 102.75 79.34 104.72C79.34 106.09 79.12 107.64 78.76 109.34C78.33 111.44 77.95 114.17 77.95 116.69C77.95 118.65 78.18 120.49 78.76 121.85C79.95 124.34 84.62 126.91 85.59 127.55C86.46 128.11 86.79 128.72 86.79 129.38C86.82 131.58 82.62 134.38 78.32 135.56L78.14 135.6L84.85 141.93H89.91L89.94 141.87C89.94 141.87 90.35 141.19 90.35 140.57C90.35 140.31 90.29 140.05 90.1 139.87C89.62 139.39 88.86 139.3 88.34 139.3C88.09 139.3 87.86 139.33 87.8 139.34L82.72 135.94C83.9 135.67 89.08 134.59 91.11 134.02C93.09 133.22 95.85 132.16 95.85 129.52C95.85 129.14 95.79 128.77 95.68 128.33C95.33 127.15 94.02 125.62 91.32 125.03L92.08 124.38C94.75 124.4 97.9 126 97.9 128.66C97.9 129.19 97.78 129.76 97.51 130.38C97.35 132.32 93.5 134.46 93.5 134.46L93.36 134.53L100.02 140.37H105.33L105.36 140.32C105.36 140.32 105.75 139.77 105.75 139.2C105.75 139 105.7 138.79 105.53 138.6C104.74 137.8 103.07 137.79 102.84 137.78L97.87 134.56C98.94 134.03 104.72 131.14 104.75 128.05V127.95C104.67 126 103.83 124.48 100.75 122.71C98.75 121.57 95.42 120.84 93.61 120.83C93.49 120.83 93.35 120.84 93.25 120.85C95.6 116.04 95.85 111.59 95.87 110.72L103.3 113.7C105.94 117.6 109.83 119.73 113.27 119.73C116.68 119.72 120.9 117.62 123.62 113.67L131.01 110.73C131.03 111.62 131.25 116.05 133.64 120.84C133.51 120.84 133.37 120.82 133.25 120.82C131.42 120.83 128.11 121.56 126.12 122.7C123.03 124.47 122.2 125.99 122.12 127.94C122.11 127.97 122.11 128.03 122.11 128.04C122.13 131.09 127.75 133.92 128.96 134.49L129.06 134.52L129.1 134.45C129.59 133.83 130.09 133.2 130.57 132.53L130.62 132.45L130.56 132.39C129.92 131.76 129.42 131.05 129.35 130.41C129.06 129.75 128.94 129.18 128.94 128.66C128.93 126 132.09 124.4 134.78 124.38L135.31 124.84L135.41 124.91L135.46 124.8C138.07 120.11 140.18 115.2 141.91 110.32V110.27V110.25C141.53 109.36 141.18 108.51 140.94 107.7C140.13 105.07 139.82 102.79 139.82 100.81C139.82 94.8099 142.64 91.8399 142.64 91.8299L142.68 91.7699L142.65 91.7599Z" fill="#FFCD00"/>
<path d="M89.9204 142.78H84.8604C84.6404 142.78 84.4504 142.69 84.2804 142.55L77.5504 136.22C77.3104 136.01 77.2404 135.67 77.3104 135.37C77.3904 135.06 77.6204 134.83 77.9404 134.75L78.1104 134.7C82.5304 133.51 85.9504 130.86 85.9404 129.39C85.9404 129.21 85.9404 128.79 85.1404 128.27C84.9904 128.18 84.7904 128.06 84.5304 127.89C82.7804 126.8 79.1304 124.57 77.9904 122.21C77.3904 120.81 77.0904 118.97 77.0904 116.67C77.0904 113.61 77.6104 110.65 77.9204 109.15C78.3004 107.37 78.4704 105.92 78.4704 104.7C78.4704 102.87 78.0604 101.6 77.2404 100.85C77.0404 100.68 76.9004 100.42 76.9004 100.17V88.61C76.9004 88.35 77.0204 88.1 77.2204 87.93C77.4204 87.76 77.6904 87.71 77.9504 87.76L78.0604 87.8C80.8404 88.33 83.7904 92.22 84.6604 96.4C84.9504 97.93 85.1004 99.35 85.1004 100.75C85.1004 103.32 84.6304 105.63 84.0104 108.53C83.8004 109.51 83.5704 110.56 83.3404 111.7C84.0604 110.19 84.6804 108.75 85.0904 107.44C85.8204 105.11 86.1904 102.89 86.1904 100.8C86.1904 95.26 83.7204 92.52 83.6104 92.4C83.3604 92.14 83.2504 91.7 83.4204 91.38L87.7604 82.53C87.9204 82.21 88.2604 82.02 88.6304 82.06C89.0004 82.1 89.2904 82.37 89.3804 82.72L90.4204 87.08L100.24 90.78C100.57 90.91 100.81 91.23 100.81 91.59V93.34C100.81 93.84 100.41 94.21 99.9404 94.21H98.5404C96.3904 94.21 94.7804 94.31 93.7804 94.51C93.4804 94.58 93.2904 94.64 93.1304 94.69C94.0204 95.72 95.3004 97.35 96.8704 99.72H129.95C131.54 97.32 132.81 95.72 133.69 94.7C133.55 94.64 133.34 94.58 133.03 94.51C132.06 94.31 130.52 94.21 128.31 94.21C127.9 94.21 127.45 94.21 127.03 94.21H126.91C126.44 94.21 126.04 93.83 126.04 93.34V91.59C126.04 91.23 126.27 90.91 126.6 90.78L136.41 87.08L137.46 82.72C137.54 82.37 137.84 82.1 138.21 82.06C138.57 82.02 138.91 82.21 139.08 82.53L143.42 91.38C143.57 91.68 143.52 92.02 143.34 92.27C143.29 92.34 143.26 92.38 143.24 92.4C142.82 92.91 140.67 95.7 140.67 100.8C140.67 102.89 141.03 105.12 141.74 107.44C141.97 108.13 142.27 108.93 142.68 109.89C142.69 109.92 142.7 109.95 142.72 109.99C142.76 110.13 142.78 110.29 142.74 110.43C142.74 110.47 142.72 110.56 142.7 110.6C140.85 115.88 138.67 120.78 136.2 125.22L136.16 125.29C136.04 125.54 135.84 125.71 135.56 125.76C135.32 125.82 135.05 125.76 134.85 125.59L134.46 125.25C132.4 125.39 129.78 126.57 129.79 128.66C129.79 129.1 129.9 129.54 130.13 130.05C130.16 130.13 130.18 130.23 130.18 130.32C130.23 130.68 130.59 131.22 131.15 131.77L131.2 131.82C131.47 132.1 131.53 132.51 131.35 132.86L131.31 132.94C131.31 132.94 131.26 133.01 131.23 133.05C130.76 133.69 130.28 134.34 129.74 135.01C129.51 135.36 129.09 135.49 128.7 135.35L128.63 135.31C127.35 134.73 121.23 131.72 121.21 128.08C121.21 128.04 121.21 127.96 121.21 127.88C121.35 125.38 122.59 123.71 125.66 121.98C127.48 120.93 130.27 120.21 132.26 120.03C130.85 116.7 130.36 113.67 130.2 112L124.17 114.38C121.47 118.17 117.21 120.59 113.25 120.61C109.42 120.61 105.41 118.25 102.71 114.43L96.6304 112C96.4704 113.68 96.0004 116.7 94.5604 120.03C96.5604 120.21 99.3504 120.93 101.18 121.98C104.23 123.71 105.51 125.44 105.61 127.93V128.07C105.58 130.8 102.27 133.19 99.5704 134.66L103.1 136.95C104.51 137.03 105.53 137.39 106.13 138.03C106.45 138.37 106.6 138.77 106.6 139.22C106.6 139.71 106.42 140.26 106.1 140.78C106.1 140.8 106.07 140.83 106.04 140.86C105.89 141.08 105.6 141.26 105.32 141.26H100.01C99.8004 141.26 99.6104 141.18 99.4404 141.03L92.7804 135.2C92.5604 135.01 92.4704 134.73 92.4904 134.46V134.39C92.1604 134.54 91.8304 134.66 91.5304 134.79L91.4204 134.83C91.4204 134.83 91.3704 134.86 91.3304 134.86C90.2304 135.17 88.0604 135.68 84.8904 136.36L88.0304 138.46C88.1104 138.46 88.2204 138.45 88.3404 138.45C89.3804 138.45 90.1804 138.73 90.7104 139.27C90.9204 139.47 91.2104 139.89 91.2104 140.57C91.2104 141.22 90.9404 141.84 90.7004 142.26C90.5504 142.55 90.2404 142.79 89.9104 142.79L89.9204 142.78ZM85.2104 141.04H89.3804C89.4904 140.77 89.5004 140.61 89.5004 140.56C89.5004 140.48 89.5004 140.46 89.5004 140.46C89.3004 140.28 88.9004 140.16 88.3604 140.16C88.1904 140.16 88.0304 140.19 87.9604 140.19C87.7504 140.23 87.5004 140.18 87.3304 140.06L82.2504 136.66C81.9604 136.46 81.8104 136.12 81.8704 135.77C81.9304 135.43 82.2104 135.16 82.5404 135.08L82.6604 135.06C86.7804 134.18 89.5304 133.55 90.8304 133.19L90.9004 133.17C93.2204 132.23 94.9904 131.38 94.9904 129.51C94.9904 129.21 94.9504 128.9 94.8404 128.55C94.5904 127.65 93.4604 126.38 91.1404 125.87C90.8204 125.8 90.5604 125.56 90.4704 125.23C90.4104 124.91 90.5204 124.57 90.7604 124.37L91.5104 123.72C91.6704 123.58 91.8504 123.52 92.0904 123.51C95.3204 123.55 98.7804 125.53 98.7804 128.67C98.7804 129.29 98.6404 129.95 98.3504 130.61C98.1004 132.29 96.1104 133.84 94.8304 134.67L100.36 139.52H104.81C104.89 139.36 104.89 139.26 104.89 139.21C104.75 139.07 104.25 138.71 102.87 138.66C102.71 138.65 102.51 138.6 102.37 138.52L97.4104 135.29C97.1404 135.13 97.0004 134.84 97.0204 134.52C97.0404 134.21 97.2004 133.93 97.4904 133.79C101.37 131.89 103.88 129.64 103.89 128.05V127.95C103.82 126.41 103.21 125.1 100.32 123.47C98.5204 122.43 95.3304 121.7 93.6104 121.69C93.5304 121.69 93.4404 121.69 93.3604 121.71C93.0504 121.74 92.7204 121.59 92.5304 121.33C92.3704 121.08 92.3304 120.74 92.4704 120.46C94.7604 115.81 94.9804 111.51 94.9904 110.7C94.9904 110.42 95.1404 110.16 95.3604 110.01C95.6004 109.86 95.8904 109.82 96.1604 109.93L103.61 112.9C103.77 112.97 103.9 113.07 104 113.22C106.37 116.7 109.92 118.88 113.26 118.88C116.1 118.87 120.2 117.1 122.91 113.18C123 113.03 123.14 112.93 123.3 112.87L130.67 109.93C130.94 109.83 131.23 109.86 131.47 110.01C131.7 110.17 131.84 110.43 131.85 110.71C131.88 111.53 132.08 115.81 134.39 120.46C134.52 120.74 134.52 121.07 134.34 121.32C134.16 121.59 133.86 121.73 133.57 121.72H133.47C133.38 121.69 133.31 121.69 133.23 121.69C131.52 121.71 128.34 122.43 126.54 123.47C123.65 125.12 123.03 126.37 122.95 127.98C122.95 128.03 122.95 128.05 122.95 128.07C123 130.07 126.51 132.32 128.78 133.45C129.03 133.13 129.26 132.81 129.48 132.52C128.92 131.87 128.57 131.23 128.49 130.63C128.2 129.95 128.05 129.29 128.05 128.65C128.03 125.52 131.52 123.53 134.76 123.49C134.85 123.49 135.01 123.53 135.13 123.57C137.33 119.49 139.29 115.05 140.96 110.28C140.6 109.42 140.31 108.63 140.09 107.93C139.33 105.45 138.94 103.04 138.94 100.78C138.94 95.85 140.74 92.84 141.64 91.63L138.6 85.44L138.01 87.91C137.93 88.2 137.73 88.42 137.46 88.53L127.79 92.18V92.45H128.32C130.68 92.45 132.29 92.56 133.4 92.8C134.9 93.11 135.65 93.71 135.64 94.61C135.64 94.79 135.58 95 135.5 95.21C135.46 95.3 135.41 95.36 135.35 95.44C134.48 96.39 133.08 98.13 131.24 100.92L131.16 101.04C131 101.28 130.72 101.42 130.43 101.42H96.4204C96.1404 101.42 95.8704 101.27 95.7004 101.04L95.6404 100.92C93.8004 98.13 92.3504 96.38 91.4904 95.39C91.4004 95.29 91.3304 95.17 91.2904 95.04C91.2504 94.92 91.2204 94.76 91.2204 94.58C91.1804 93.72 91.9204 93.1 93.4604 92.79C94.5904 92.55 96.2504 92.44 98.5604 92.44H99.0904V92.17L89.3904 88.52C89.1304 88.41 88.9204 88.19 88.8604 87.9L88.2704 85.44L85.2404 91.61C86.0404 92.67 87.9404 95.69 87.9404 100.76C87.9404 103.02 87.5404 105.44 86.7704 107.91C86.2204 109.69 85.2604 111.7 84.3504 113.64C83.6104 115.2 82.8504 116.83 82.3004 118.31C82.1604 118.72 81.7204 118.96 81.2804 118.85C80.8604 118.74 80.5804 118.33 80.6304 117.91C81.1304 113.74 81.8004 110.64 82.3104 108.14C82.9104 105.32 83.3804 103.1 83.3804 100.71C83.3804 99.42 83.2604 98.12 82.9804 96.72C82.3404 93.58 80.3504 90.8 78.6604 89.81V99.76C79.7204 100.86 80.2404 102.47 80.2404 104.67C80.2404 106 80.0404 107.57 79.6404 109.47C79.1404 111.91 78.8504 114.52 78.8504 116.63C78.8504 118.74 79.1004 120.3 79.5904 121.45C80.4804 123.32 83.9604 125.46 85.4404 126.36C85.7204 126.53 85.9504 126.67 86.0904 126.77C87.1404 127.45 87.6904 128.32 87.6904 129.33C87.7204 131.88 83.9404 134.55 79.8404 135.95L85.2304 141L85.2104 141.04ZM95.3104 126.09C95.9604 126.74 96.3604 127.44 96.5304 128.1C96.6804 128.61 96.7404 129.06 96.7404 129.52C96.7404 129.76 96.7304 129.97 96.6804 130.18C96.7004 130.13 96.7104 130.08 96.7404 130.03C96.9504 129.54 97.0604 129.07 97.0604 128.65C97.0604 127.53 96.3204 126.66 95.3104 126.09Z" fill="#555150"/>
<path d="M76.45 183.07C76.25 183.03 50.1 176.82 20.9 138.35C2.08 113.55 0 84.43 0 72.59C0 69.44 0.14 67.5 0.18 67.18V3.51L1.19 3.47C1.19 3.47 60.79 0 76.3 0C91.81 0 152.4 3.47 152.4 3.47L153.42 3.51V67.67C153.42 72.41 152.91 112.53 132.7 138.36C102.98 176.28 77.15 183.03 76.96 183.07L76.71 183.13L76.45 183.07ZM2.33 67.28V67.33C2.33 67.33 2.15 69.22 2.15 72.59C2.14 84.18 4.23 112.87 22.61 137.05C47.89 170.36 70.69 179.04 75.86 180.66C76.23 180.78 76.5 180.87 76.66 180.91C76.85 180.87 77.13 180.78 77.5 180.66C78.25 180.39 79.33 180.01 80.73 179.42C83.54 178.24 87.61 176.26 92.62 173.11C102.6 166.8 116.29 155.82 131 137.04C150.63 112.1 151.29 72.22 151.27 67.67V5.55C147.61 5.34 134.54 4.6 120.06 3.87C102.99 3 83.97 2.14 76.29 2.14C68.61 2.14 49.86 3 33.04 3.87C18.79 4.6 5.93 5.34 2.32 5.55V67.29L2.33 67.28Z" fill="#555150"/>
<path fill-rule="evenodd" clip-rule="evenodd" d="M77.7891 4.72998L149.159 7.77998V65.79H77.7891V4.72998Z" fill="#C91517"/>
<path fill-rule="evenodd" clip-rule="evenodd" d="M4.17969 7.77998L75.5497 4.72998V65.79H4.17969V7.77998Z" fill="#1C1B37"/>
<path d="M75.2095 68.28H4.22946V74.31C3.18946 89.3 8.69946 115.6 24.4895 135.74C52.9295 172.03 75.2095 177.59 75.2095 177.59V68.28Z" fill="#FFCD00"/>
<path fill-rule="evenodd" clip-rule="evenodd" d="M66.2495 68.28L75.0895 77.13V87.99L55.4395 68.28H66.2495Z" fill="#C91517"/>
<path fill-rule="evenodd" clip-rule="evenodd" d="M46.1696 68.28L75.0896 97.28V108.13L35.3496 68.28H46.1696Z" fill="#C91517"/>
<path fill-rule="evenodd" clip-rule="evenodd" d="M26.0798 68.28L75.0898 117.41V128.28L15.2598 68.28H26.0798Z" fill="#C91517"/>
<path fill-rule="evenodd" clip-rule="evenodd" d="M6.0007 68.28L75.0907 137.54V148.41L4.2307 77.34L4.2207 76.95V68.28H6.0007Z" fill="#C91517"/>
<path fill-rule="evenodd" clip-rule="evenodd" d="M4.68945 87.6599L75.0894 157.7V168.56L7.51945 101.36C6.19945 96.4399 5.29945 91.8199 4.68945 87.6599Z" fill="#C91517"/>
<path fill-rule="evenodd" clip-rule="evenodd" d="M12.9104 116.18L73.8604 177.17C67.0604 174.84 47.0204 165.89 24.4904 136.19C19.5404 129.66 15.7704 122.84 12.9004 116.19" fill="#C91517"/>
<path d="M29.0997 52.68L23.4797 52.5099L21.8897 57.91L20.2997 52.5099L14.6797 52.68L19.3197 49.49L17.4297 44.2L21.8897 47.63L26.3497 44.2L24.4497 49.49L29.0997 52.68Z" fill="white"/>
<path d="M26.9891 25.2999L20.0691 25.1099L18.1291 31.7399L16.1891 25.1099L9.28906 25.2999L14.9891 21.4099L12.6791 14.9299L18.1291 19.1199L23.5891 14.9299L21.2891 21.4099L26.9891 25.2999Z" fill="white"/>
<path d="M54.61 20.72L49.02 20.55L47.41 25.92L45.84 20.55L40.25 20.72L44.87 17.54L42.99 12.28L47.41 15.67L51.84 12.28L49.99 17.54L54.61 20.72Z" fill="white"/>
<path d="M49.6693 45.6001L45.5893 42.4601L41.5293 45.6001L43.2493 40.7601L39.0293 37.8501L44.1393 37.9901L45.5893 33.0901L47.0493 37.9901L52.1693 37.8501L47.9493 40.7601L49.6693 45.6001Z" fill="white"/>
<path d="M70.2698 55.25L64.4398 55.09L62.7998 60.67L61.1598 55.09L55.3398 55.25L60.1198 51.95L58.1898 46.46L62.7898 50.03L67.4098 46.46L65.4498 51.95L70.2698 55.25Z" fill="white"/>
<path d="M111.33 52.7699C111.33 51.5799 112.29 50.6299 113.47 50.6299C114.65 50.6299 115.62 51.5799 115.62 52.7699C115.62 52.7699 115.44 52.7699 115.15 52.7899V53.5799H115.58L113.46 58.8799L111.36 53.5799H111.75V52.8099C111.49 52.8099 111.32 52.7899 111.32 52.7699" fill="#FFCD00"/>
<path d="M105.6 57.61C104.75 56.78 104.75 55.41 105.6 54.59C106.44 53.75 107.8 53.75 108.64 54.59C108.64 54.59 108.53 54.71 108.33 54.91L108.91 55.49L109.21 55.19L111.45 60.44L106.21 58.17L106.51 57.88L105.93 57.33C105.74 57.52 105.63 57.62 105.6 57.61Z" fill="#FFCD00"/>
<path d="M118.3 54.58C119.14 53.75 120.5 53.75 121.34 54.58C122.18 55.41 122.18 56.78 121.34 57.61C121.34 57.61 121.21 57.5 121.01 57.29L120.46 57.87L120.73 58.16L115.49 60.43L117.76 55.18L118.04 55.48L118.59 54.91C118.4 54.7 118.3 54.6 118.3 54.58Z" fill="#FFCD00"/>
<path fill-rule="evenodd" clip-rule="evenodd" d="M94.1993 23.2401V38.9401C94.1993 40.9901 94.2393 42.0801 94.3193 42.2401C94.4093 42.3801 94.4893 42.4601 94.5793 42.4601L94.8893 42.4301C94.8893 42.4301 94.9893 42.4601 95.0293 42.5601C95.0793 42.6501 95.1293 42.7201 95.1293 42.8001C95.1293 42.9101 95.0693 42.9901 94.9293 43.0301C94.8893 43.0501 94.7093 43.1101 94.3793 43.1901L88.9693 44.6501C88.7393 44.7001 88.5793 44.7301 88.4693 44.7301C88.2293 44.7301 88.0793 44.6501 88.0193 44.5001C87.9793 44.4301 87.9693 44.2501 87.9693 44.0001V27.4101C87.9693 26.1201 87.9093 25.3901 87.8193 25.1901C87.6693 24.8101 87.3193 24.6201 86.7893 24.6201C86.6293 24.6201 86.3093 24.6801 85.8293 24.7701C85.7393 24.7701 85.6693 24.7801 85.6093 24.7801C85.3793 24.7801 85.2793 24.6701 85.2793 24.4201C85.2793 24.2901 85.4193 24.2001 85.7193 24.1501L92.8793 22.4801C93.3193 22.3801 93.5893 22.3401 93.6993 22.3401C93.9093 22.3401 94.0293 22.3801 94.1093 22.5101C94.1693 22.6301 94.2193 22.8701 94.2193 23.2501" fill="#FFCD00"/>
<path fill-rule="evenodd" clip-rule="evenodd" d="M131.019 24.4099C130.039 25.0599 129.529 25.9499 129.529 27.0899C129.529 28.0899 129.979 28.9599 130.859 29.6999C131.479 30.2199 132.739 30.8699 134.619 31.6299C137.009 32.5899 138.679 33.4699 139.629 34.2199C140.779 35.1299 141.349 36.2999 141.349 37.7099C141.349 39.7299 140.279 41.3499 138.079 42.5899C135.749 43.8999 132.929 44.5599 129.629 44.5599C127.029 44.5599 125.039 44.1899 123.709 43.4499C122.939 43.0099 122.539 42.5599 122.539 42.1399C122.539 41.8899 122.769 41.6699 123.159 41.4899L127.019 39.8499C127.229 39.7299 127.379 39.6899 127.489 39.6899C127.599 39.6899 127.699 39.7299 127.809 39.8099C127.899 39.9099 127.929 39.9999 127.929 40.1099C127.929 40.1499 127.899 40.2199 127.829 40.2999C127.749 40.3899 127.719 40.4699 127.719 40.5499C127.719 40.7899 128.069 41.1099 128.759 41.4599C129.409 41.7699 130.149 42.0599 130.959 42.2599C131.769 42.4899 132.509 42.5899 133.099 42.5899H133.689C134.719 41.7199 135.229 40.6799 135.229 39.4699C135.229 38.3699 134.659 37.3999 133.539 36.6099C132.949 36.1999 131.549 35.5399 129.349 34.6299C126.969 33.6799 125.349 32.6999 124.469 31.7299C123.699 30.8699 123.299 29.8799 123.299 28.7999C123.299 26.5499 124.609 24.9099 127.219 23.8599C129.629 22.8999 132.249 22.4199 135.139 22.4199C136.779 22.4199 138.249 22.5899 139.569 22.9299C140.969 23.2799 141.669 23.7499 141.669 24.3299C141.669 24.5299 141.529 24.6999 141.229 24.8499L137.179 26.5999C136.989 26.6699 136.859 26.7199 136.739 26.7199C136.639 26.7199 136.559 26.6699 136.439 26.5899C136.359 26.4799 136.309 26.3999 136.309 26.2899C136.309 26.2499 136.349 26.1699 136.379 26.0799C136.429 25.9999 136.439 25.9599 136.439 25.9099C136.439 25.6499 135.959 25.3299 134.939 24.9599C133.959 24.5799 132.929 24.3899 131.849 24.3899H131.029" fill="#FFCD00"/>
<path d="M105.739 34.33V38.95C105.739 40.98 105.779 42.06 105.869 42.24C105.939 42.38 106.049 42.46 106.139 42.46L106.439 42.43C106.439 42.43 106.519 42.46 106.559 42.56C106.619 42.65 106.649 42.72 106.649 42.8C106.649 42.91 106.569 42.99 106.449 43.03L105.919 43.19L100.469 44.65C100.289 44.7 100.109 44.73 99.9691 44.73C99.7191 44.73 99.5691 44.65 99.5191 44.5C99.4991 44.43 99.4791 44.25 99.4791 44V28.25C99.4791 26.42 99.4191 25.38 99.3191 25.19C99.1491 24.81 98.8191 24.62 98.3091 24.62C98.1391 24.62 97.7991 24.68 97.3191 24.77C97.2391 24.77 97.1691 24.78 97.1191 24.78C96.8891 24.78 96.7891 24.67 96.7891 24.42C96.7891 24.31 96.9291 24.2 97.2291 24.15L104.379 22.48C104.809 22.38 105.089 22.34 105.199 22.34C105.389 22.34 105.539 22.38 105.589 22.52C105.699 22.66 105.729 23.16 105.729 24V32.09H108.259V19.07H104.899V16.86H108.259V12.99H110.669V16.86H114.039V19.07H110.669V32.09H113.559V28.26C113.559 26.43 113.499 25.39 113.409 25.2C113.239 24.82 112.889 24.63 112.379 24.63C112.199 24.63 111.889 24.69 111.429 24.78C111.329 24.78 111.269 24.79 111.189 24.79C110.989 24.79 110.889 24.68 110.889 24.43C110.889 24.32 111.029 24.21 111.299 24.16L118.479 22.49C118.919 22.39 119.179 22.35 119.309 22.35C119.489 22.35 119.619 22.39 119.709 22.53C119.769 22.64 119.799 23.14 119.799 24.01V38.97C119.799 41.01 119.839 42.1 119.939 42.26C120.019 42.4 120.109 42.48 120.179 42.48L120.479 42.45C120.479 42.45 120.589 42.48 120.649 42.58C120.689 42.67 120.729 42.74 120.729 42.82C120.729 42.93 120.679 43.01 120.539 43.05L119.969 43.21L114.559 44.67C114.359 44.72 114.189 44.75 114.069 44.75C113.819 44.75 113.669 44.67 113.619 44.52C113.579 44.45 113.569 44.27 113.569 44.02V34.36H105.739V34.33Z" fill="#FFCD00"/>
<path d="M131.631 131.56C131.311 130.93 131.181 130.16 131.451 129.21C131.711 128.28 132.731 127.04 134.811 126.49C133.831 128.22 132.781 129.91 131.631 131.57" fill="#FFCD00"/>
<path d="M131.581 132.03C131.401 132.02 131.261 131.93 131.181 131.78C130.951 131.32 130.801 130.8 130.801 130.21C130.801 129.85 130.861 129.48 130.951 129.09C131.261 127.95 132.421 126.64 134.631 126.03C134.811 125.97 135.011 126.03 135.121 126.2C135.241 126.35 135.251 126.55 135.171 126.72C134.181 128.47 133.121 130.16 131.991 131.82C131.901 131.95 131.761 132.02 131.601 132.02H131.581V132.03ZM131.861 129.34C131.771 129.65 131.741 129.93 131.741 130.21C131.741 130.29 131.741 130.41 131.771 130.49C132.431 129.48 133.101 128.44 133.701 127.38C132.581 127.96 132.041 128.76 131.871 129.34" fill="#555150"/>
<path d="M124.08 140.47H121.54C121.54 140.47 120.85 139.51 121.36 139.01C122.11 138.26 123.89 138.27 123.89 138.27L128.24 135.58C126.83 137.26 125.44 138.91 124.08 140.47Z" fill="#FFCD00"/>
<path d="M121.541 140.98C121.381 140.98 121.231 140.89 121.111 140.75C121.111 140.71 120.671 140.19 120.671 139.49C120.661 139.25 120.721 138.91 121.001 138.67C121.861 137.86 123.241 137.81 123.711 137.8L127.961 135.15C128.161 135.02 128.441 135.06 128.611 135.24C128.781 135.44 128.791 135.69 128.641 135.88C127.231 137.6 125.841 139.22 124.471 140.8C124.381 140.91 124.231 141 124.081 141H121.541V140.98ZM123.841 139.97C124.501 139.21 125.181 138.44 125.841 137.66L124.181 138.69C124.091 138.76 123.961 138.78 123.841 138.76C123.541 138.76 122.141 138.9 121.741 139.36C121.701 139.39 121.701 139.41 121.701 139.49C121.691 139.61 121.751 139.8 121.841 139.95V139.97H123.851H123.841Z" fill="#555150"/>
<path d="M142.79 107C142.21 103.92 141.97 101.35 142.68 97.8301C143.28 94.8401 144.97 92.2301 146.69 90.8601C145.78 95.8801 144.53 101.38 142.79 107Z" fill="#FFCD00"/>
<path d="M142.781 107.52C142.521 107.5 142.321 107.32 142.281 107.09C141.941 105.32 141.711 103.7 141.711 101.97C141.711 100.64 141.841 99.27 142.161 97.72C142.801 94.58 144.541 91.88 146.371 90.43C146.541 90.28 146.791 90.27 146.981 90.38C147.161 90.5 147.271 90.72 147.231 90.93C146.321 95.96 145.081 101.48 143.321 107.14C143.251 107.38 143.051 107.52 142.801 107.52H142.791H142.781ZM143.201 97.92C142.901 99.41 142.781 100.72 142.781 101.97C142.781 102.85 142.851 103.72 142.951 104.61C144.161 100.39 145.111 96.27 145.851 92.42C144.681 93.79 143.651 95.76 143.211 97.92" fill="#555150"/>
<path d="M105.46 96.27H121.54C122.43 96.27 123.16 97.01 123.16 97.91V99.05H103.82V97.91C103.82 97.01 104.55 96.27 105.45 96.27" fill="#FFCD00"/>
<path d="M103.831 99.57C103.691 99.57 103.571 99.51 103.481 99.41C103.381 99.32 103.311 99.2 103.311 99.04V97.9C103.311 96.69 104.291 95.72 105.461 95.72V96.79C104.831 96.79 104.361 97.3 104.361 97.89V98.5H122.651V97.89C122.651 97.29 122.161 96.79 121.541 96.79H105.461V95.72H121.541C122.711 95.72 123.681 96.69 123.681 97.9V99.04C123.681 99.19 123.621 99.32 123.531 99.41C123.431 99.52 123.311 99.57 123.171 99.57H103.831Z" fill="#555150"/>
<path d="M142.65 91.7599L138.31 82.9199L137.14 87.7199L126.91 91.5799V93.3299H128.31C130.51 93.3299 132.13 93.4399 133.21 93.6599C134.3 93.8799 134.77 94.2199 134.75 94.5999C134.75 94.6699 134.74 94.7799 134.68 94.8799C132.61 97.1899 130.69 100.17 130.41 100.58H124.16L113.43 100.6L102.66 100.58H96.4C96.14 100.17 94.19 97.1899 92.12 94.8499C92.09 94.7599 92.07 94.6799 92.07 94.6099C92.05 94.2099 92.52 93.8899 93.6 93.6699C94.68 93.4599 96.32 93.3399 98.53 93.3399H99.93V91.5899L89.68 87.7299L88.53 82.9299L84.18 91.7699L84.24 91.8299C84.24 91.8299 87.03 94.8099 87.03 100.81C87.03 102.77 86.73 105.07 85.9 107.7C84.93 110.85 82.7 114.68 81.45 118.07C82.52 109.32 84.22 105.46 84.22 100.77C84.22 99.4799 84.09 98.1299 83.81 96.6099C82.97 92.5199 80.13 89.0999 77.89 88.6599L77.75 88.6299V100.19L77.81 100.23C78.89 101.19 79.34 102.75 79.34 104.72C79.34 106.09 79.12 107.64 78.76 109.34C78.33 111.44 77.95 114.17 77.95 116.69C77.95 118.65 78.18 120.49 78.76 121.85C79.95 124.34 84.62 126.91 85.59 127.55C86.46 128.11 86.79 128.72 86.79 129.38C86.82 131.58 82.62 134.38 78.32 135.56L78.14 135.6L84.85 141.93H89.91L89.94 141.87C89.94 141.87 90.35 141.19 90.35 140.57C90.35 140.31 90.29 140.05 90.1 139.87C89.62 139.39 88.86 139.3 88.34 139.3C88.09 139.3 87.86 139.33 87.8 139.34L82.72 135.94C83.9 135.67 89.08 134.59 91.11 134.02C93.09 133.22 95.85 132.16 95.85 129.52C95.85 129.14 95.79 128.77 95.68 128.33C95.33 127.15 94.02 125.62 91.32 125.03L92.08 124.38C94.75 124.4 97.9 126 97.9 128.66C97.9 129.19 97.78 129.76 97.51 130.38C97.35 132.32 93.5 134.46 93.5 134.46L93.36 134.53L100.02 140.37H105.33L105.36 140.32C105.36 140.32 105.75 139.77 105.75 139.2C105.75 139 105.7 138.79 105.53 138.6C104.74 137.8 103.07 137.79 102.84 137.78L97.87 134.56C98.94 134.03 104.72 131.14 104.75 128.05V127.95C104.67 126 103.83 124.48 100.75 122.71C98.75 121.57 95.42 120.84 93.61 120.83C93.49 120.83 93.35 120.84 93.25 120.85C95.6 116.04 95.85 111.59 95.87 110.72L103.3 113.7C105.94 117.6 109.83 119.73 113.27 119.73C116.68 119.72 120.9 117.62 123.62 113.67L131.01 110.73C131.03 111.62 131.25 116.05 133.64 120.84C133.51 120.84 133.37 120.82 133.25 120.82C131.42 120.83 128.11 121.56 126.12 122.7C123.03 124.47 122.2 125.99 122.12 127.94C122.11 127.97 122.11 128.03 122.11 128.04C122.13 131.09 127.75 133.92 128.96 134.49L129.06 134.52L129.1 134.45C129.59 133.83 130.09 133.2 130.57 132.53L130.62 132.45L130.56 132.39C129.92 131.76 129.42 131.05 129.35 130.41C129.06 129.75 128.94 129.18 128.94 128.66C128.93 126 132.09 124.4 134.78 124.38L135.31 124.84L135.41 124.91L135.46 124.8C138.07 120.11 140.18 115.2 141.91 110.32V110.27V110.25C141.53 109.36 141.18 108.51 140.94 107.7C140.13 105.07 139.82 102.79 139.82 100.81C139.82 94.8099 142.64 91.8399 142.64 91.8299L142.68 91.7699L142.65 91.7599Z" fill="#FFCD00"/>
<path d="M89.9204 142.78H84.8604C84.6404 142.78 84.4504 142.69 84.2804 142.55L77.5504 136.22C77.3104 136.01 77.2404 135.67 77.3104 135.37C77.3904 135.06 77.6204 134.83 77.9404 134.75L78.1104 134.7C82.5304 133.51 85.9504 130.86 85.9404 129.39C85.9404 129.21 85.9404 128.79 85.1404 128.27C84.9904 128.18 84.7904 128.06 84.5304 127.89C82.7804 126.8 79.1304 124.57 77.9904 122.21C77.3904 120.81 77.0904 118.97 77.0904 116.67C77.0904 113.61 77.6104 110.65 77.9204 109.15C78.3004 107.37 78.4704 105.92 78.4704 104.7C78.4704 102.87 78.0604 101.6 77.2404 100.85C77.0404 100.68 76.9004 100.42 76.9004 100.17V88.61C76.9004 88.35 77.0204 88.1 77.2204 87.93C77.4204 87.76 77.6904 87.71 77.9504 87.76L78.0604 87.8C80.8404 88.33 83.7904 92.22 84.6604 96.4C84.9504 97.93 85.1004 99.35 85.1004 100.75C85.1004 103.32 84.6304 105.63 84.0104 108.53C83.8004 109.51 83.5704 110.56 83.3404 111.7C84.0604 110.19 84.6804 108.75 85.0904 107.44C85.8204 105.11 86.1904 102.89 86.1904 100.8C86.1904 95.26 83.7204 92.52 83.6104 92.4C83.3604 92.14 83.2504 91.7 83.4204 91.38L87.7604 82.53C87.9204 82.21 88.2604 82.02 88.6304 82.06C89.0004 82.1 89.2904 82.37 89.3804 82.72L90.4204 87.08L100.24 90.78C100.57 90.91 100.81 91.23 100.81 91.59V93.34C100.81 93.84 100.41 94.21 99.9404 94.21H98.5404C96.3904 94.21 94.7804 94.31 93.7804 94.51C93.4804 94.58 93.2904 94.64 93.1304 94.69C94.0204 95.72 95.3004 97.35 96.8704 99.72H129.95C131.54 97.32 132.81 95.72 133.69 94.7C133.55 94.64 133.34 94.58 133.03 94.51C132.06 94.31 130.52 94.21 128.31 94.21C127.9 94.21 127.45 94.21 127.03 94.21H126.91C126.44 94.21 126.04 93.83 126.04 93.34V91.59C126.04 91.23 126.27 90.91 126.6 90.78L136.41 87.08L137.46 82.72C137.54 82.37 137.84 82.1 138.21 82.06C138.57 82.02 138.91 82.21 139.08 82.53L143.42 91.38C143.57 91.68 143.52 92.02 143.34 92.27C143.29 92.34 143.26 92.38 143.24 92.4C142.82 92.91 140.67 95.7 140.67 100.8C140.67 102.89 141.03 105.12 141.74 107.44C141.97 108.13 142.27 108.93 142.68 109.89C142.69 109.92 142.7 109.95 142.72 109.99C142.76 110.13 142.78 110.29 142.74 110.43C142.74 110.47 142.72 110.56 142.7 110.6C140.85 115.88 138.67 120.78 136.2 125.22L136.16 125.29C136.04 125.54 135.84 125.71 135.56 125.76C135.32 125.82 135.05 125.76 134.85 125.59L134.46 125.25C132.4 125.39 129.78 126.57 129.79 128.66C129.79 129.1 129.9 129.54 130.13 130.05C130.16 130.13 130.18 130.23 130.18 130.32C130.23 130.68 130.59 131.22 131.15 131.77L131.2 131.82C131.47 132.1 131.53 132.51 131.35 132.86L131.31 132.94C131.31 132.94 131.26 133.01 131.23 133.05C130.76 133.69 130.28 134.34 129.74 135.01C129.51 135.36 129.09 135.49 128.7 135.35L128.63 135.31C127.35 134.73 121.23 131.72 121.21 128.08C121.21 128.04 121.21 127.96 121.21 127.88C121.35 125.38 122.59 123.71 125.66 121.98C127.48 120.93 130.27 120.21 132.26 120.03C130.85 116.7 130.36 113.67 130.2 112L124.17 114.38C121.47 118.17 117.21 120.59 113.25 120.61C109.42 120.61 105.41 118.25 102.71 114.43L96.6304 112C96.4704 113.68 96.0004 116.7 94.5604 120.03C96.5604 120.21 99.3504 120.93 101.18 121.98C104.23 123.71 105.51 125.44 105.61 127.93V128.07C105.58 130.8 102.27 133.19 99.5704 134.66L103.1 136.95C104.51 137.03 105.53 137.39 106.13 138.03C106.45 138.37 106.6 138.77 106.6 139.22C106.6 139.71 106.42 140.26 106.1 140.78C106.1 140.8 106.07 140.83 106.04 140.86C105.89 141.08 105.6 141.26 105.32 141.26H100.01C99.8004 141.26 99.6104 141.18 99.4404 141.03L92.7804 135.2C92.5604 135.01 92.4704 134.73 92.4904 134.46V134.39C92.1604 134.54 91.8304 134.66 91.5304 134.79L91.4204 134.83C91.4204 134.83 91.3704 134.86 91.3304 134.86C90.2304 135.17 88.0604 135.68 84.8904 136.36L88.0304 138.46C88.1104 138.46 88.2204 138.45 88.3404 138.45C89.3804 138.45 90.1804 138.73 90.7104 139.27C90.9204 139.47 91.2104 139.89 91.2104 140.57C91.2104 141.22 90.9404 141.84 90.7004 142.26C90.5504 142.55 90.2404 142.79 89.9104 142.79L89.9204 142.78ZM85.2104 141.04H89.3804C89.4904 140.77 89.5004 140.61 89.5004 140.56C89.5004 140.48 89.5004 140.46 89.5004 140.46C89.3004 140.28 88.9004 140.16 88.3604 140.16C88.1904 140.16 88.0304 140.19 87.9604 140.19C87.7504 140.23 87.5004 140.18 87.3304 140.06L82.2504 136.66C81.9604 136.46 81.8104 136.12 81.8704 135.77C81.9304 135.43 82.2104 135.16 82.5404 135.08L82.6604 135.06C86.7804 134.18 89.5304 133.55 90.8304 133.19L90.9004 133.17C93.2204 132.23 94.9904 131.38 94.9904 129.51C94.9904 129.21 94.9504 128.9 94.8404 128.55C94.5904 127.65 93.4604 126.38 91.1404 125.87C90.8204 125.8 90.5604 125.56 90.4704 125.23C90.4104 124.91 90.5204 124.57 90.7604 124.37L91.5104 123.72C91.6704 123.58 91.8504 123.52 92.0904 123.51C95.3204 123.55 98.7804 125.53 98.7804 128.67C98.7804 129.29 98.6404 129.95 98.3504 130.61C98.1004 132.29 96.1104 133.84 94.8304 134.67L100.36 139.52H104.81C104.89 139.36 104.89 139.26 104.89 139.21C104.75 139.07 104.25 138.71 102.87 138.66C102.71 138.65 102.51 138.6 102.37 138.52L97.4104 135.29C97.1404 135.13 97.0004 134.84 97.0204 134.52C97.0404 134.21 97.2004 133.93 97.4904 133.79C101.37 131.89 103.88 129.64 103.89 128.05V127.95C103.82 126.41 103.21 125.1 100.32 123.47C98.5204 122.43 95.3304 121.7 93.6104 121.69C93.5304 121.69 93.4404 121.69 93.3604 121.71C93.0504 121.74 92.7204 121.59 92.5304 121.33C92.3704 121.08 92.3304 120.74 92.4704 120.46C94.7604 115.81 94.9804 111.51 94.9904 110.7C94.9904 110.42 95.1404 110.16 95.3604 110.01C95.6004 109.86 95.8904 109.82 96.1604 109.93L103.61 112.9C103.77 112.97 103.9 113.07 104 113.22C106.37 116.7 109.92 118.88 113.26 118.88C116.1 118.87 120.2 117.1 122.91 113.18C123 113.03 123.14 112.93 123.3 112.87L130.67 109.93C130.94 109.83 131.23 109.86 131.47 110.01C131.7 110.17 131.84 110.43 131.85 110.71C131.88 111.53 132.08 115.81 134.39 120.46C134.52 120.74 134.52 121.07 134.34 121.32C134.16 121.59 133.86 121.73 133.57 121.72H133.47C133.38 121.69 133.31 121.69 133.23 121.69C131.52 121.71 128.34 122.43 126.54 123.47C123.65 125.12 123.03 126.37 122.95 127.98C122.95 128.03 122.95 128.05 122.95 128.07C123 130.07 126.51 132.32 128.78 133.45C129.03 133.13 129.26 132.81 129.48 132.52C128.92 131.87 128.57 131.23 128.49 130.63C128.2 129.95 128.05 129.29 128.05 128.65C128.03 125.52 131.52 123.53 134.76 123.49C134.85 123.49 135.01 123.53 135.13 123.57C137.33 119.49 139.29 115.05 140.96 110.28C140.6 109.42 140.31 108.63 140.09 107.93C139.33 105.45 138.94 103.04 138.94 100.78C138.94 95.85 140.74 92.84 141.64 91.63L138.6 85.44L138.01 87.91C137.93 88.2 137.73 88.42 137.46 88.53L127.79 92.18V92.45H128.32C130.68 92.45 132.29 92.56 133.4 92.8C134.9 93.11 135.65 93.71 135.64 94.61C135.64 94.79 135.58 95 135.5 95.21C135.46 95.3 135.41 95.36 135.35 95.44C134.48 96.39 133.08 98.13 131.24 100.92L131.16 101.04C131 101.28 130.72 101.42 130.43 101.42H96.4204C96.1404 101.42 95.8704 101.27 95.7004 101.04L95.6404 100.92C93.8004 98.13 92.3504 96.38 91.4904 95.39C91.4004 95.29 91.3304 95.17 91.2904 95.04C91.2504 94.92 91.2204 94.76 91.2204 94.58C91.1804 93.72 91.9204 93.1 93.4604 92.79C94.5904 92.55 96.2504 92.44 98.5604 92.44H99.0904V92.17L89.3904 88.52C89.1304 88.41 88.9204 88.19 88.8604 87.9L88.2704 85.44L85.2404 91.61C86.0404 92.67 87.9404 95.69 87.9404 100.76C87.9404 103.02 87.5404 105.44 86.7704 107.91C86.2204 109.69 85.2604 111.7 84.3504 113.64C83.6104 115.2 82.8504 116.83 82.3004 118.31C82.1604 118.72 81.7204 118.96 81.2804 118.85C80.8604 118.74 80.5804 118.33 80.6304 117.91C81.1304 113.74 81.8004 110.64 82.3104 108.14C82.9104 105.32 83.3804 103.1 83.3804 100.71C83.3804 99.42 83.2604 98.12 82.9804 96.72C82.3404 93.58 80.3504 90.8 78.6604 89.81V99.76C79.7204 100.86 80.2404 102.47 80.2404 104.67C80.2404 106 80.0404 107.57 79.6404 109.47C79.1404 111.91 78.8504 114.52 78.8504 116.63C78.8504 118.74 79.1004 120.3 79.5904 121.45C80.4804 123.32 83.9604 125.46 85.4404 126.36C85.7204 126.53 85.9504 126.67 86.0904 126.77C87.1404 127.45 87.6904 128.32 87.6904 129.33C87.7204 131.88 83.9404 134.55 79.8404 135.95L85.2304 141L85.2104 141.04ZM95.3104 126.09C95.9604 126.74 96.3604 127.44 96.5304 128.1C96.6804 128.61 96.7404 129.06 96.7404 129.52C96.7404 129.76 96.7304 129.97 96.6804 130.18C96.7004 130.13 96.7104 130.08 96.7404 130.03C96.9504 129.54 97.0604 129.07 97.0604 128.65C97.0604 127.53 96.3204 126.66 95.3104 126.09Z" fill="#555150"/>
<path d="M113.129 68.0901L111.699 94.5301H114.429L113.129 68.0901Z" fill="#FFCD00"/>
<path d="M111.131 95.0701L112.601 68.0601H113.671L115.001 95.0701H111.131ZM112.271 93.9901H113.881L113.111 78.4701L112.281 93.9901H112.271Z" fill="#555150"/>
<path d="M122.699 103.66C125.639 104.16 127.659 105.1 128.029 105.91C128.689 107.4 127.089 109.31 124.069 111.1C124.259 110.22 124.349 109.29 124.349 108.34C124.349 107.17 124.199 106.05 123.869 104.95H122.699V103.66Z" fill="white"/>
<path d="M123.53 110.99C123.71 110.14 123.82 109.26 123.82 108.34C123.82 107.37 123.69 106.4 123.46 105.49H122.17V103.03L122.8 103.14C125.8 103.69 127.88 104.47 128.52 105.69C128.66 105.98 128.72 106.29 128.72 106.6C128.66 108.38 126.96 109.96 124.35 111.55L123.3 112.18L123.55 110.98L123.53 110.99ZM124.39 104.8C124.72 105.93 124.89 107.13 124.88 108.34C124.88 108.9 124.85 109.46 124.77 110.01C126.66 108.71 127.68 107.42 127.62 106.6C127.62 106.43 127.59 106.27 127.52 106.12C127.46 105.81 126.24 105.05 124.3 104.53L124.39 104.8ZM123.24 104.43H123.79C123.6 104.38 123.42 104.34 123.24 104.31V104.43Z" fill="#555150"/>
<path d="M104.7 103.66C101.78 104.16 99.77 105.1 99.39 105.91C98.73 107.4 100.32 109.31 103.35 111.1C103.18 110.22 103.07 109.29 103.07 108.34C103.07 107.17 103.21 106.05 103.53 104.95H104.7V103.66Z" fill="white"/>
<path d="M103.079 111.55C100.459 109.96 98.7595 108.38 98.6895 106.6C98.6895 106.29 98.7795 105.97 98.9095 105.69C99.5695 104.47 101.599 103.69 104.609 103.14L105.239 103.03V105.49H103.949C103.719 106.41 103.589 107.37 103.589 108.34C103.589 109.31 103.679 110.14 103.879 111L104.129 112.2L103.079 111.57V111.55ZM99.8695 106.12C99.8095 106.29 99.7694 106.43 99.7694 106.6C99.7094 107.42 100.729 108.7 102.619 110.01C102.539 109.46 102.509 108.9 102.509 108.33C102.509 107.12 102.669 105.93 102.999 104.8L103.059 104.53C101.159 105.05 99.9295 105.8 99.8595 106.12M103.619 104.43H104.179V104.31C103.969 104.34 103.799 104.38 103.619 104.43Z" fill="#555150"/>
</g>
<defs>
<clipPath id="clip0_1794_38">
<rect width="153.42" height="183.14" fill="white"/>
</clipPath>
</defs>
</svg>
